
<svg width="99px" height="101px" viewBox="0 0 99 101" version="1.1" xmlns="http://www.w3.org/2000/svg" xmlns:xlink="http://www.w3.org/1999/xlink">
    <g id="Page-1" stroke="none" stroke-width="1" fill="none" fill-rule="evenodd">
        <circle id="Oval" fill="#000000" fill-rule="nonzero" cx="48.5" cy="48.5" r="47.584"></circle>
        <g id="keyboard" transform="translate(5.000000, 10.000000)" fill-rule="nonzero">
            <g id="Group">
                <g transform="translate(5.000000, 4.000000)" id="Rectangle">
                    <g fill="#000000">
                        <rect transform="translate(15.158210, 52.311194) rotate(-17.253536) translate(-15.158210, -52.311194) " x="9.94471907" y="18.8702514" width="10.4269821" height="66.881885"></rect>
                        <rect transform="translate(26.815911, 48.690176) rotate(-17.253536) translate(-26.815911, -48.690176) " x="21.6024205" y="15.2492336" width="10.4269821" height="66.881885"></rect>
                        <rect transform="translate(38.474732, 45.068562) rotate(-17.253536) translate(-38.474732, -45.068562) " x="33.260741" y="11.6276191" width="10.4279821" height="66.881885"></rect>
                        <rect transform="translate(50.132530, 41.448099) rotate(-17.253536) translate(-50.132530, -41.448099) " x="44.918539" y="8.00715632" width="10.4279821" height="66.881885"></rect>
                        <rect transform="translate(61.789473, 37.828233) rotate(-17.253536) translate(-61.789473, -37.828233) " x="56.575482" y="4.38729012" width="10.4279821" height="66.881885"></rect>
                        <rect transform="translate(73.447271, 34.207770) rotate(-17.253536) translate(-73.447271, -34.207770) " x="68.23328" y="0.766827319" width="10.4279821" height="66.881885"></rect>
                    </g>
                    <g fill="#FFFFFF">
                        <rect stroke="#FFFFFF" transform="translate(15.158210, 52.311194) rotate(-17.253536) translate(-15.158210, -52.311194) " x="9.94471907" y="18.8702514" width="10.4269821" height="66.881885"></rect>
                        <rect transform="translate(26.815911, 48.690176) rotate(-17.253536) translate(-26.815911, -48.690176) " x="21.6024205" y="15.2492336" width="10.4269821" height="66.881885"></rect>
                        <rect transform="translate(38.474732, 45.068562) rotate(-17.253536) translate(-38.474732, -45.068562) " x="33.260741" y="11.6276191" width="10.4279821" height="66.881885"></rect>
                        <rect transform="translate(50.132530, 41.448099) rotate(-17.253536) translate(-50.132530, -41.448099) " x="44.918539" y="8.00715632" width="10.4279821" height="66.881885"></rect>
                        <rect stroke="#FFFFFF" transform="translate(61.789473, 37.828233) rotate(-17.253536) translate(-61.789473, -37.828233) " x="56.575482" y="4.38729012" width="10.4279821" height="66.881885"></rect>
                        <rect stroke="#FFFFFF" transform="translate(73.447271, 34.207770) rotate(-17.253536) translate(-73.447271, -34.207770) " x="68.23328" y="0.766827319" width="10.4279821" height="66.881885"></rect>
                    </g>
                </g>
                <path d="M30.292,54.495 C30.5,55.167 30.125,55.883 29.452,56.091 L24.359,57.672 C23.687,57.882 22.972,57.506 22.763,56.833 L10.842,18.444 C10.634,17.771 11.009,17.057 11.682,16.848 L16.775,15.266 C17.447,15.058 18.162,15.433 18.371,16.106 L30.292,54.495 Z" id="Path" fill="#000000"></path>
                <path d="M19.526,58.0689653 C19.735,58.6871425 19.359,59.3420067 18.686,59.5336967 L13.594,60.9837533 C12.921,61.1745261 12.206,60.8305848 11.997,60.2133247 L0.076,25.0038225 C-0.133,24.3865625 0.243,23.7307811 0.916,23.5390911 L6.008,22.0890345 C6.681,21.8982617 7.396,22.242203 7.605,22.8585459 L19.526,58.0689653 Z" id="Path" fill="#000000"></path>
                <path d="M53.64,47.669 C53.848,48.341 53.473,49.056 52.799,49.266 L47.707,50.847 C47.033,51.055 46.319,50.68 46.11,50.007 L34.188,11.618 C33.98,10.945 34.356,10.23 35.029,10.022 L40.121,8.44 C40.794,8.231 41.508,8.607 41.717,9.28 L53.64,47.669 Z" id="Path" fill="#000000"></path>
                <path d="M65.137,43.773 C65.344,44.447 64.968,45.16 64.296,45.369 L59.204,46.951 C58.53,47.158 57.815,46.784 57.607,46.11 L45.685,7.722 C45.477,7.049 45.853,6.334 46.526,6.125 L51.62,4.543 C52.292,4.335 53.006,4.71 53.215,5.383 L65.137,43.773 Z" id="Path" fill="#000000"></path>
                <path d="M76.599,40.006 C76.808,40.678 76.433,41.395 75.759,41.604 L70.667,43.184 C69.994,43.393 69.279,43.018 69.07,42.344 L57.148,3.954 C56.939,3.282 57.316,2.567 57.989,2.358 L63.081,0.776 C63.754,0.567 64.469,0.943 64.677,1.616 L76.599,40.006 Z" id="Path" fill="#000000"></path>
            </g>
        </g>
        <path d="M48.738,5.318 C72.766,5.318 92.243,24.796 92.243,48.823 C92.243,72.849 72.765,92.328 48.738,92.328 C24.711,92.328 5.233,72.849 5.233,48.823 C5.233,24.796 24.71,5.318 48.738,5.318 L48.738,5.318 Z M48.738,10.756 C27.747,10.756 10.672,27.833 10.672,48.823 C10.672,69.812 27.748,86.89 48.738,86.89 C69.729,86.89 86.805,69.812 86.805,48.823 C86.805,27.833 69.729,10.756 48.738,10.756 L48.738,10.756 Z" id="Shape" fill="#FFFFFF" fill-rule="nonzero"></path>
        <path d="M48.5,1 C74.7344558,1 96,22.266636 96,48.5 C96,74.7322722 74.733364,96 48.5,96 C22.266636,96 1,74.7322722 1,48.5 C1,22.266636 22.2655442,1 48.5,1 L48.5,1 Z M49.0047683,7.06382979 C25.8769839,7.06382979 7.06382979,25.8789404 7.06382979,49.0053191 C7.06382979,72.1305962 25.8780857,90.9468085 49.0047683,90.9468085 C72.1325526,90.9468085 90.9468085,72.1305962 90.9468085,49.0053191 C90.9468085,25.8789404 72.1325526,7.06382979 49.0047683,7.06382979 L49.0047683,7.06382979 Z" id="Shape" fill="#000000" fill-rule="nonzero"></path>
    </g>
</svg>